<svg xmlns="http://www.w3.org/2000/svg" viewBox="0 0 26 26"><path d="M22.7 25.8H3.5c-1.767 0-3.2-1.433-3.2-3.201V3.4C.3 1.632 1.733.199 3.5.199h19.2c1.767 0 3.2 1.433 3.2 3.201v19.199c0 1.768-1.433 3.201-3.2 3.201zM13.1 8.039c-1.996 0-3.711 1.182-4.498 2.88h-.005c-.008.018-.014.037-.022.055-.047.105-.088.213-.128.321-.019.053-.04.104-.057.156-.037.112-.067.225-.095.34-.014.053-.03.106-.042.16-.026.121-.044.244-.061.368-.007.05-.017.099-.023.15-.018.174-.029.351-.029.531 0 2.739 2.221 4.959 4.96 4.959s4.96-2.22 4.96-4.959c0-.18-.011-.357-.029-.531-.006-.051-.016-.1-.023-.15-.017-.124-.035-.247-.061-.368-.012-.054-.028-.107-.042-.16-.028-.115-.058-.228-.095-.34-.017-.052-.038-.103-.057-.156-.04-.108-.081-.216-.128-.321-.008-.018-.014-.037-.022-.055h-.005c-.787-1.698-2.502-2.88-4.498-2.88zm9.92-3.68c0-.707-.573-1.279-1.28-1.279h-2.56c-.707 0-1.28.572-1.28 1.279V6.92c0 .707.573 1.28 1.28 1.28h2.56c.707 0 1.28-.573 1.28-1.28V4.359zm0 6.56h-2.36c.182.663.28 1.361.28 2.081 0 4.33-3.51 7.839-7.84 7.839S5.26 17.33 5.26 13c0-.72.098-1.418.28-2.081H3.18v10.72c0 .708.573 1.281 1.28 1.281h17.28c.707 0 1.28-.573 1.28-1.281v-10.72z"/></svg>