<svg xmlns="http://www.w3.org/2000/svg" viewBox="0 0 18 15"><path d="M17.726 3.663h.001l-2.475 5.5c-.122.271-.386.464-.697.485l-7.128.475.412 1.176H15.6c.911 0 1.65.739 1.65 1.651 0 .911-.739 1.65-1.65 1.65-.911 0-1.65-.739-1.65-1.65h-7.7c0 .911-.739 1.65-1.65 1.65-.911 0-1.65-.739-1.65-1.65 0-.912.739-1.651 1.65-1.651h1.491L2.915 2.225h-1.89C.569 2.225.2 1.855.2 1.4c0-.456.369-.825.825-.825H3.5c.36 0 .663.232.776.553l.003-.001.48 1.373h12.216c.456 0 .825.369.825.825 0 .12-.027.234-.074.338zM5.337 4.15l1.525 4.357 7.089-.473 1.748-3.884H5.337z"/></svg>