<svg xmlns="http://www.w3.org/2000/svg" viewBox="0 0 26 22"><path d="M17.513.601c2.034-.036 3.117.705 4.151 1.647.878-.075 2.019-.565 2.691-.907.217-.118.435-.238.653-.357-.384 1.037-.904 1.849-1.704 2.466-.178.136-.354.321-.577.408v.013c1.14-.011 2.08-.526 2.973-.805v.013c-.469.745-1.104 1.502-1.781 2.044-.273.217-.547.434-.82.651.015 1.207-.018 2.359-.243 3.373-1.312 5.895-4.788 9.897-10.289 11.612-1.976.615-5.168.868-7.432.306-1.122-.278-2.136-.593-3.087-1.009-.529-.231-1.019-.481-1.487-.767-.154-.093-.307-.187-.461-.28.51.015 1.108.156 1.678.063.517-.083 1.023-.061 1.5-.165 1.188-.261 2.243-.606 3.151-1.138.441-.258 1.11-.56 1.423-.932-.59.01-1.125-.127-1.563-.281-1.699-.6-2.688-1.703-3.332-3.36.515.057 1.998.191 2.345-.102-.648-.036-1.271-.411-1.717-.69-1.367-.855-2.481-2.289-2.473-4.496.18.085.359.17.538.255.344.145.693.222 1.102.307.173.036.519.137.718.063h-.026c-.264-.307-.695-.512-.961-.843C1.606 6.601.785 4.924 1.304 2.926c.132-.507.341-.954.564-1.367.009.004.017.008.026.012.102.214.33.371.474.55.448.555 1 1.054 1.563 1.494 1.918 1.5 3.645 2.422 6.419 3.104.704.174 1.517.306 2.358.307-.236-.687-.16-1.8.025-2.465.468-1.674 1.483-2.879 2.973-3.526.356-.154.751-.267 1.166-.358.214-.025.427-.051.641-.076z"/></svg>